<svg xmlns="http://www.w3.org/2000/svg" viewBox="0 0 162 196"><g id="Layer_2" data-name="Layer 2"><g id="Layer_1-2" data-name="Layer 1"><path d="M162,114.18a84.39,84.39,0,0,1-5.85,33.48C144.41,177.6,116.45,195.77,81.8,196c-35,.22-63.29-17.63-75.36-47.65-7.72-19.21-7.69-38.93-4.13-58.78C6.54,66,15.36,43.9,32.51,25.55A103.12,103.12,0,0,1,57.29,6.25c15.49-8.61,32-8,48-.1,14.21,7,24.56,17.71,33.06,30C153.55,58.08,161.84,85.26,162,114.18Zm-9.21.33c-.14-27.59-8.15-53.66-22.45-74.27C123.17,30,114.61,20.93,103.05,14.63c-14.68-8-29.54-8.07-44,.2A74.55,74.55,0,0,0,43.9,26.22C25.53,44.3,16.1,66.36,11.58,90.29,8,109.44,7.86,128.53,15.77,147c10.89,25.42,34.83,40.31,64.91,40.52s54.15-14.44,65.46-39.77A77.21,77.21,0,0,0,152.74,114.51Z"/><path d="M36.29,81.53c4.74-10.68,8.48-21.25,14-30.82,4.24-7.38,10.58-13.6,16.21-20.13,1.93-2.23,4.69-4.66,7.65-1.6s.6,5.39-1.74,7.56A88.77,88.77,0,0,0,46,82.09c-.63,2.66-1.79,5.14-4.92,4.17C39.44,85.76,38.33,83.65,36.29,81.53Z"/><path d="M128.23,89.5c3.89.48,6.13,2.44,6,6.17s-2.43,5.85-6.11,5.71c-3.44-.14-5.47-2.39-5.51-5.82C122.55,91.8,124.92,90,128.23,89.5Z"/><path d="M64,161.37c4,.43,6.06,2.42,5.94,6.22-.11,3.52-2.12,5.62-5.66,5.64-3.74,0-6-2.06-6-5.85S60.64,161.79,64,161.37Z"/><path d="M85.36,168c-1.48-2-3.89-3.87-4.22-6-.5-3.35,1.9-5.57,5.47-5.48,3.32.08,5.61,2.21,5,5.36-.38,2.22-2.61,4.11-4,6.15Z"/><path d="M100.94,143.4c-2,1.43-3.94,3.77-6.13,4.08-3.1.44-5.26-2-5.26-5.26s2.19-5.67,5.28-5.21c2.2.32,4.09,2.65,6.12,4.09C100.94,141.87,100.94,142.63,100.94,143.4Z"/><path d="M45.41,142.7c1.4,1.89,4.05,3.9,3.88,5.64-.17,1.9-2.88,4.85-4.62,4.94s-4.6-2.71-4.91-4.58,2.16-3.94,3.39-5.93Z"/><path d="M127.43,64.64c-2.91,2.12-4.8,4.52-6.2,4.26-1.8-.33-3.2-2.8-4.77-4.34,1.52-1.44,3-3.88,4.58-4S124.44,62.6,127.43,64.64Z"/><path d="M131.38,145.56c-2.75,2-4.43,4.08-5.87,3.93s-3.78-2.47-3.83-3.9,2.31-3.7,3.79-3.85S128.61,143.65,131.38,145.56Z"/></g></g></svg>