<svg xmlns="http://www.w3.org/2000/svg" viewBox="0 0 240 240"><defs><style>.cls-1{fill:#fff;}</style></defs><g id="Layer_2" data-name="Layer 2"><g id="Layer_1-2" data-name="Layer 1"><path class="cls-1" d="M240,240H0V0H240ZM193.44,135.38c-.1-28.85-7.66-56-21.51-77.85-7.76-12.26-17.2-22.92-30.17-29.94-14.59-7.9-29.67-8.49-43.8.1A95.67,95.67,0,0,0,75.35,47C59.71,65.26,51.66,87.27,47.79,110.83c-3.25,19.8-3.27,39.48,3.77,58.65,11,30,36.82,47.77,68.76,47.54,31.61-.22,57.11-18.36,67.79-48.23A91.67,91.67,0,0,0,193.44,135.38Z"/><path d="M193.44,135.38a91.67,91.67,0,0,1-5.33,33.41c-10.68,29.87-36.18,48-67.79,48.23-31.94.23-57.75-17.58-68.76-47.54-7-19.17-7-38.85-3.77-58.65C51.66,87.27,59.71,65.26,75.35,47A95.67,95.67,0,0,1,98,27.69c14.13-8.59,29.21-8,43.8-.1,13,7,22.41,17.68,30.17,29.94C185.78,79.41,193.34,106.53,193.44,135.38Zm-8.4.33c-.13-27.52-7.43-53.53-20.49-74.11-6.49-10.24-14.29-19.27-24.85-25.55-13.39-8-26.95-8-40.13.2A69,69,0,0,0,85.74,47.62C69,65.66,60.38,87.67,56.25,111.55c-3.3,19.11-3.39,38.15,3.83,56.59,9.94,25.37,31.77,40.23,59.22,40.43s49.4-14.41,59.71-39.68A83.37,83.37,0,0,0,185,135.71Z"/><path class="cls-1" d="M185,135.71a83.37,83.37,0,0,1-6,33.18c-10.31,25.27-32.3,39.88-59.71,39.68S70,193.51,60.08,168.14c-7.22-18.44-7.13-37.48-3.83-56.59C60.38,87.67,69,65.66,85.74,47.62A69,69,0,0,1,99.57,36.25c13.18-8.25,26.74-8.17,40.13-.2,10.56,6.28,18.36,15.31,24.85,25.55C177.61,82.18,184.91,108.19,185,135.71ZM72.65,102.77c2,2.11,3.15,4.23,4.76,4.73,3.13,1,4.29-1.51,4.92-4.17a88.73,88.73,0,0,1,26.42-45.55c2.34-2.17,4.63-4.58,1.74-7.57s-5.72-.62-7.65,1.61c-5.63,6.53-12,12.75-16.21,20.13C81.13,81.52,77.39,92.09,72.65,102.77Zm91.94,8c-3.31.51-5.68,2.3-5.63,6.06,0,3.43,2.07,5.68,5.51,5.82,3.68.14,6-2,6.11-5.71S168.48,111.22,164.59,110.74Zm-64.2,71.87c-3.39.42-5.76,2.17-5.72,6s2.26,5.88,6,5.85c3.54,0,5.55-2.12,5.66-5.65C106.45,185,104.34,183,100.39,182.61Zm21.33,6.65H124c1.4-2,3.63-3.93,4-6.15.56-3.15-1.73-5.28-5.05-5.36-3.57-.09-6,2.13-5.47,5.48C117.83,185.39,120.24,187.26,121.72,189.26Zm15.58-24.62c0-.77,0-1.53,0-2.3-2-1.44-3.92-3.77-6.12-4.09-3.09-.46-5.28,1.91-5.28,5.21s2.16,5.7,5.26,5.26C133.36,168.41,135.26,166.07,137.3,164.64Zm-55.53-.7-2.26.07c-1.23,2-3.68,4.18-3.39,5.93s3.26,4.68,4.91,4.58,4.45-3,4.62-4.94C85.82,167.84,83.17,165.83,81.77,163.94Zm82-78.06c-3-2-4.79-4.25-6.39-4.11s-3.06,2.59-4.58,4c1.57,1.55,3,4,4.77,4.35C159,90.4,160.88,88,163.79,85.88Zm4,80.92c-2.77-1.91-4.46-4-5.91-3.82S158,165.5,158,166.83s2.34,3.75,3.83,3.9S165,168.76,167.74,166.8Z"/><path d="M72.65,102.77c4.74-10.68,8.48-21.25,14-30.82,4.24-7.38,10.58-13.6,16.21-20.13,1.93-2.23,4.69-4.66,7.65-1.61s.6,5.4-1.74,7.57a88.73,88.73,0,0,0-26.42,45.55c-.63,2.66-1.79,5.14-4.92,4.17C75.8,107,74.69,104.88,72.65,102.77Z"/><path d="M164.59,110.74c3.89.48,6.13,2.44,6,6.17s-2.43,5.85-6.11,5.71c-3.44-.14-5.47-2.39-5.51-5.82C158.91,113,161.28,111.25,164.59,110.74Z"/><path d="M100.39,182.61c4,.43,6.06,2.42,5.94,6.21-.11,3.53-2.12,5.63-5.66,5.65-3.74,0-6-2.06-6-5.85S97,183,100.39,182.61Z"/><path d="M121.72,189.26c-1.48-2-3.89-3.87-4.22-6-.5-3.35,1.9-5.57,5.47-5.48,3.32.08,5.61,2.21,5.05,5.36-.38,2.22-2.61,4.11-4,6.15Z"/><path d="M137.3,164.64c-2,1.43-3.94,3.77-6.13,4.08-3.1.44-5.26-2-5.26-5.26s2.19-5.67,5.28-5.21c2.2.32,4.09,2.65,6.12,4.09C137.3,163.11,137.3,163.87,137.3,164.64Z"/><path d="M81.77,163.94c1.4,1.89,4,3.9,3.88,5.64-.17,1.9-2.88,4.85-4.62,4.94s-4.6-2.71-4.91-4.58S78.28,166,79.51,164Z"/><path d="M163.79,85.88c-2.91,2.12-4.8,4.52-6.2,4.26-1.8-.33-3.2-2.8-4.77-4.35,1.52-1.43,3-3.87,4.58-4S160.8,83.84,163.79,85.88Z"/><path d="M167.74,166.8c-2.75,2-4.43,4.08-5.87,3.93s-3.78-2.47-3.83-3.9,2.31-3.7,3.79-3.85S165,164.89,167.74,166.8Z"/></g></g></svg>