<svg xmlns="http://www.w3.org/2000/svg" viewBox="0 0 240 240"><defs><style>.cls-1{fill:#fff;}</style></defs><g id="Layer_2" data-name="Layer 2"><g id="Layer_1-2" data-name="Layer 1"><path class="cls-1" d="M0,240V0H240V240ZM194.29,134.05l-1.22-.21c-.12-26.92-7.86-54.49-21.44-76-7.39-11.68-16.3-21.94-28.42-29-15.62-9-31.44-9.25-46.91.07-5.5,3.32-11,7.23-15.19,12-30.92,35.67-41.7,77-30.66,122.8,7.88,32.63,35,52.17,68.21,52.59,33.56.42,60.36-18.76,70-51.07C191.6,155.23,192.46,144.5,194.29,134.05Z"/><path d="M194.29,134.05c-1.83,10.45-2.69,21.18-5.68,31.29-9.59,32.31-36.39,51.49-70,51.07-33.2-.42-60.33-20-68.21-52.59-11-45.76-.26-87.13,30.66-122.8,4.17-4.81,9.69-8.72,15.19-12,15.47-9.32,31.29-9.12,46.91-.07,12.12,7,21,17.28,28.42,29,13.58,21.48,21.32,49.05,21.44,76Zm-7.73,0c-1.63-11-2.47-21.34-4.78-31.34-5.25-22.77-14.57-43.64-32.15-59.78-19.36-17.77-40.35-17.69-59.82-.1C79,52.61,71.31,64.65,65.72,78c-11.23,26.74-16,54.37-8.5,82.9,7.87,29.91,31.83,48,62.18,48.06,30.58.08,54.32-17.64,62.54-47.5C184.43,152.39,185.13,142.84,186.56,134.05Z"/><path class="cls-1" d="M186.56,134.05c-1.43,8.79-2.13,18.34-4.62,27.4C173.72,191.31,150,209,119.4,209c-30.35-.07-54.31-18.15-62.18-48.06-7.51-28.53-2.73-56.16,8.5-82.9C71.31,64.65,79,52.61,89.81,42.83c19.47-17.59,40.46-17.67,59.82.1,17.58,16.14,26.9,37,32.15,59.78C184.09,112.71,184.93,123.05,186.56,134.05ZM74.15,104c1,.91,2.88,3.31,3.44,3,1.74-.86,3.84-2.52,4.28-4.25A90.51,90.51,0,0,1,108.5,57.4c2.08-1.93,4.19-4.08,1.87-6.74-2.7-3.1-5.1-.54-7.16,1.36A93.81,93.81,0,0,0,76.86,94.27C76,97.12,75.25,100,74.15,104ZM102,194.37c1-1.41,3.35-3.25,3.81-5.47.71-3.44-1.61-5.72-5.19-5.8-3.28-.08-5.42,1.78-5.59,5.13C94.85,191.82,96.9,193.73,102,194.37Zm69-76.61,0-2.32c-2.07-1.41-4-3.67-6.24-4-3.19-.52-5.37,1.9-5.39,5.18,0,3.48,2.07,6.08,5.6,5.42C167.17,121.58,169,119.24,171,117.76Zm-42.41,66.53,0-2.26c-1.92-1.34-4-3.85-5.73-3.68s-3.44,3-5.14,4.62c1.64,1.69,3.14,4.51,5,4.76S126.65,185.54,128.62,184.29Zm3.92-26.52-2.31-.06c-1.34,1.92-3.9,4-3.68,5.71s2.88,4.28,4.85,4.7c1.2.25,4.24-2.72,4.38-4.42C135.94,161.82,133.72,159.75,132.54,157.77ZM81.87,164.4H79.81c-1.22,1.84-3.58,3.84-3.35,5.48s2.87,3.95,4.69,4.19c1.26.17,4-2.65,4.09-4.19C85.29,168.08,83.09,166.23,81.87,164.4Zm81.38-78.78c-2.94-1.76-4.74-3.7-6.14-3.44s-2.63,2.61-3.92,4c1.45,1.28,2.85,3.47,4.38,3.57S160.54,87.74,163.25,85.62Zm4.05,81.2c-2.62-1.81-4.16-3.7-5.45-3.55s-3.53,2.27-3.52,3.51,2.1,3.42,3.48,3.6S164.66,168.63,167.3,166.82Z"/><path d="M74.15,104c1.1-4,1.83-6.89,2.71-9.74A93.81,93.81,0,0,1,103.21,52c2.06-1.9,4.46-4.46,7.16-1.36,2.32,2.66.21,4.81-1.87,6.74a90.51,90.51,0,0,0-26.63,45.39c-.44,1.73-2.54,3.39-4.28,4.25C77,107.32,75.15,104.92,74.15,104Z"/><path d="M102,194.37c-5.11-.64-7.16-2.55-7-6.14.17-3.35,2.31-5.21,5.59-5.13,3.58.08,5.9,2.36,5.19,5.8C105.36,191.12,103.05,193,102,194.37Z"/><path d="M171,117.76c-2,1.48-3.86,3.82-6.06,4.24-3.53.66-5.63-1.94-5.6-5.42,0-3.28,2.2-5.7,5.39-5.18,2.24.37,4.17,2.63,6.24,4Z"/><path d="M128.62,184.29c-2,1.25-4.1,3.68-5.86,3.44s-3.34-3.07-5-4.76c1.7-1.65,3.29-4.43,5.14-4.62s3.81,2.34,5.73,3.68Z"/><path d="M132.54,157.77c1.18,2,3.4,4,3.24,5.93-.14,1.7-3.18,4.67-4.38,4.42-2-.42-4.62-2.85-4.85-4.7s2.34-3.79,3.68-5.71Z"/><path d="M81.87,164.4c1.22,1.83,3.42,3.68,3.37,5.47,0,1.54-2.83,4.36-4.09,4.19-1.82-.24-4.45-2.5-4.69-4.19s2.13-3.64,3.35-5.48Z"/><path d="M163.25,85.62c-2.71,2.12-4.27,4.27-5.68,4.18s-2.93-2.29-4.38-3.57c1.29-1.44,2.41-3.77,3.92-4S160.31,83.86,163.25,85.62Z"/><path d="M167.3,166.82c-2.64,1.81-4.19,3.72-5.49,3.56s-3.46-2.31-3.48-3.6,2.13-3.35,3.52-3.51S164.68,165,167.3,166.82Z"/></g></g></svg>