<svg id="Layer_1" data-name="Layer 1" xmlns="http://www.w3.org/2000/svg" viewBox="0 0 300 300"><path d="M223.44,165.38a91.67,91.67,0,0,1-5.33,33.41c-10.68,29.87-36.18,48-67.79,48.23-31.94.23-57.75-17.58-68.76-47.54-7-19.17-7-38.85-3.77-58.65C81.66,117.27,89.71,95.26,105.35,77A95.67,95.67,0,0,1,128,57.69c14.13-8.59,29.21-8,43.8-.1,13,7,22.41,17.68,30.17,29.94C215.78,109.41,223.34,136.53,223.44,165.38Zm-8.4.33c-.13-27.52-7.43-53.53-20.49-74.11-6.49-10.24-14.29-19.27-24.85-25.55-13.39-8-26.95-8-40.13.2a69,69,0,0,0-13.83,11.37c-16.76,18-25.36,40.05-29.49,63.93-3.3,19.11-3.39,38.15,3.83,56.59,9.94,25.37,31.77,40.23,59.22,40.43s49.4-14.41,59.71-39.68A83.37,83.37,0,0,0,215,165.71Z"/><path d="M102.65,132.77c4.74-10.68,8.48-21.25,14-30.82,4.24-7.38,10.58-13.6,16.21-20.13,1.93-2.23,4.69-4.66,7.65-1.61s.6,5.4-1.74,7.57a88.73,88.73,0,0,0-26.42,45.55c-.63,2.66-1.79,5.14-4.92,4.17C105.8,137,104.69,134.88,102.65,132.77Z"/><path d="M194.59,140.74c3.89.48,6.13,2.44,6,6.17s-2.43,5.85-6.11,5.71c-3.44-.14-5.47-2.39-5.51-5.82C188.91,143,191.28,141.25,194.59,140.74Z"/><path d="M130.39,212.61c4,.43,6.06,2.42,5.94,6.21-.11,3.53-2.12,5.63-5.66,5.65-3.74,0-6-2.06-6-5.85S127,213,130.39,212.61Z"/><path d="M151.72,219.26c-1.48-2-3.89-3.87-4.22-6-.5-3.35,1.9-5.57,5.47-5.48,3.32.08,5.61,2.21,5.05,5.36-.38,2.22-2.61,4.11-4,6.15Z"/><path d="M167.3,194.64c-2,1.43-3.94,3.77-6.13,4.08-3.1.44-5.26-2-5.26-5.26s2.19-5.67,5.28-5.21c2.2.32,4.09,2.65,6.12,4.09C167.3,193.11,167.3,193.87,167.3,194.64Z"/><path d="M111.77,193.94c1.4,1.89,4,3.9,3.88,5.64-.17,1.9-2.88,4.85-4.62,4.94s-4.6-2.71-4.91-4.58,2.16-3.94,3.39-5.93Z"/><path d="M193.79,115.88c-2.91,2.12-4.8,4.52-6.2,4.26-1.8-.33-3.2-2.8-4.77-4.35,1.52-1.43,3-3.87,4.58-4S190.8,113.84,193.79,115.88Z"/><path d="M197.74,196.8c-2.75,2-4.43,4.08-5.87,3.93s-3.78-2.47-3.83-3.9,2.31-3.7,3.79-3.85S195,194.89,197.74,196.8Z"/></svg>