<svg xmlns="http://www.w3.org/2000/svg" viewBox="0 0 162 196"><g id="Layer_2" data-name="Layer 2"><g id="Layer_1-2" data-name="Layer 1"><path d="M83.37,196c-30.43-.42-55.79-22.63-64.35-56.7-.12-.48-.28-.94-.36-1.43-.78-4.75-.47-10.64-2.63-13.93-1.93-3-6.68-2.78-10-4.53-6.8-3.57-8-12.09-2.67-18.55a49.19,49.19,0,0,1,8.06-7.26A113.51,113.51,0,0,0,37,66.79a17.84,17.84,0,0,0,2.11-6.62c1.28-7.67,1.58-15.76,3.65-23C51.09,7.84,75.11-6.29,100.26,2.67,123.75,11,137,38.37,132.56,69c-.28,1.92.27,4.91,1.34,6.11,5.62,6.34,11.49,12.31,17.35,18.28,1.75,1.77,3.79,3.07,5.63,4.71,6.66,5.94,6.83,13.62.46,20.1-.83.84-1.67,1.93-2.63,2.21-5.91,1.74-7.19,6.82-8.18,13.91-4.24,30.44-24.48,54.37-49.76,59.79C92.35,195.09,87.84,195.4,83.37,196ZM127.46,59.6c0-19.12-5.6-32.9-16.89-42.72-20.42-17.75-49.24-10-60.06,16-3.84,9.23-5.23,19.21-5.83,29.51a16.11,16.11,0,0,1-2.38,7.47,120.94,120.94,0,0,1-29.82,31.23,24.8,24.8,0,0,0-4.83,4.36c-2.45,3-2,5.37,1,7.47,4.84,3.36,9,1.6,13.23-2.14,3.12-2.78,6.64-6.9,9.89-6.77s6.29,4.86,9.42,7.57a1.81,1.81,0,0,1,.32.3c1.46,1.94,2.81,1.62,4.49.15,4.24-3.72,8.7-7,12.9-10.82,2.13-1.93,3.72-2.15,6-.16,4.77,4.21,9.82,7.91,14.64,12,1.79,1.53,3.14,1.62,5,.15,4.93-3.93,10.08-7.39,15-11.4,2.45-2,4.26-2.19,6.65.18,3.84,3.82,8.13,6.93,11.95,10.79,2.7,2.75,4.61,2.88,7.47,0,7.4-7.32,7.53-7.11,14.69.21,4.79,4.91,5.87,5,11.19,1.16,5.81-4.23,5.91-7.1.31-11.51C143.16,96,135,88.61,128.5,78.62c-1.94-3-3.26-5.58-2-9.83C127.42,65.42,127.28,61.55,127.46,59.6Zm5.35,56.2c-3.79,3.14-7.43,8.54-11,8.47s-7.66-4.94-10.72-8.73c-5.86-7.25-11.17-7.12-17.38-.79-3.46,3.53-7.75,8.13-11.58,8-4-.13-8.31-4.75-11.77-8.47-5.88-6.35-11-6.38-16.7.2-2.89,3.32-6.63,7.64-9.94,7.59S37.23,117,34,114.18c-.11-.1-.21-.28-.32-.29-1.5-.12-3.07-.64-4.47-.21s-2.42,2-3.75,2.73c-3,1.57-3.46,4.27-3.09,8.06,1.5,15.36,6.51,28.56,14.89,39.68,20,26.54,54.2,32.1,78.84,12.79,11.45-9,19.44-21.55,23.47-37.91C143,125.2,142.62,124.14,132.81,115.8Z"/><path d="M96.21,65.88C93,68.24,90,70.43,87,72.72c-2,1.53-3.43.9-4.58-1.53-1.68-3.54-3.41-7-5.3-10.9l9.28-6.73c2-1.42,3.52-.84,4.67,1.55C92.72,58.62,94.41,62.14,96.21,65.88Z"/><path d="M73.38,41.48c.08,4.53-2,8.18-4.8,8.33s-5.12-3.33-5.2-7.85,2.1-8.21,4.83-8.37S73.3,37,73.38,41.48Z"/><path d="M114.87,50.71c0,5.24-2.6,9.71-5.48,9.42-3.5-.36-4.46-3.65-4.58-7.4-.15-4.63,2.62-9.18,5.47-8.88C113.76,44.22,114.61,47.54,114.87,50.71Z"/><path d="M73.4,169.1a78.82,78.82,0,0,1-8.16-3.2,43.9,43.9,0,0,1-17.42-16.75,27.12,27.12,0,0,1-3.19-7.89c-.35-1.62.63-3.71,1-5.58,1.31,1,2.88,1.68,3.87,3,3.78,5.23,6.87,11.48,11.19,15.81,3.56,3.56,8.54,4.81,12.78,7.36,1.19.72,2,2.44,3,3.7Z"/></g></g></svg>