<svg xmlns="http://www.w3.org/2000/svg" viewBox="0 0 240 240"><defs><style>.cls-1{fill:#fff;}</style></defs><g id="Layer_2" data-name="Layer 2"><g id="Layer_1-2" data-name="Layer 1"><path class="cls-1" d="M240,240H0V0H240ZM122.62,216.77c5.63-.6,11.3-.9,16.87-1.84,31.82-5.39,57.3-29.17,62.64-59.43,1.25-7.05,2.85-12.09,10.29-13.82,1.21-.28,2.27-1.37,3.31-2.2,8-6.44,7.81-14.07-.58-20-2.31-1.62-4.88-2.92-7.08-4.68-7.38-5.94-14.77-11.87-21.84-18.16-1.35-1.2-2-4.18-1.69-6.08,5.58-30.47-11.08-57.64-40.66-66C112.22,15.72,82,29.76,71.5,58.87c-2.61,7.24-3,15.28-4.59,22.9-.49,2.3-1.2,4.86-2.66,6.58C55.1,99.11,44.08,107.68,32,115a58.86,58.86,0,0,0-10.13,7.22c-6.78,6.42-5.2,14.88,3.36,18.43,4.19,1.74,10.16,1.55,12.6,4.5,2.71,3.28,2.32,9.12,3.3,13.85a14.67,14.67,0,0,0,.46,1.42C52.39,194.28,84.32,216.36,122.62,216.77Z"/><path d="M122.62,216.77c-38.3-.41-70.23-22.49-81-56.35a14.67,14.67,0,0,1-.46-1.42c-1-4.73-.59-10.57-3.3-13.85-2.44-3-8.41-2.76-12.6-4.5-8.56-3.55-10.14-12-3.36-18.43A58.86,58.86,0,0,1,32,115c12-7.32,23.07-15.89,32.22-26.65,1.46-1.72,2.17-4.28,2.66-6.58,1.61-7.62,2-15.66,4.59-22.9C82,29.76,112.22,15.72,143.88,24.62c29.58,8.32,46.24,35.49,40.66,66-.35,1.9.34,4.88,1.69,6.08,7.07,6.29,14.46,12.22,21.84,18.16,2.2,1.76,4.77,3.06,7.08,4.68,8.39,5.91,8.61,13.54.58,20-1,.83-2.1,1.92-3.31,2.2-7.44,1.73-9,6.77-10.29,13.82-5.34,30.26-30.82,54-62.64,59.43C133.92,215.87,128.25,216.17,122.62,216.77Zm55.5-135.56c0-19-7.05-32.7-21.27-42.47-25.69-17.64-62-9.94-75.59,15.89-4.84,9.18-6.59,19.1-7.35,29.34a13.73,13.73,0,0,1-3,7.42,138.63,138.63,0,0,1-37.54,31,30.09,30.09,0,0,0-6.08,4.33c-3.08,3-2.52,5.34,1.28,7.43,6.1,3.34,11.36,1.6,16.66-2.13,3.93-2.76,8.36-6.86,12.46-6.73s7.91,4.83,11.86,7.53a3.69,3.69,0,0,1,.4.29c1.83,1.93,3.53,1.62,5.64.16,5.34-3.7,11-7,16.24-10.76,2.69-1.91,4.69-2.13,7.51-.16,6,4.19,12.36,7.87,18.43,12,2.25,1.52,4,1.61,6.28.14,6.2-3.89,12.69-7.34,18.83-11.32,3.08-2,5.36-2.18,8.36.18,4.84,3.8,10.24,6.88,15.05,10.72,3.4,2.73,5.8,2.87,9.4,0,9.32-7.28,9.48-7.07,18.49.21,6,4.88,7.4,5,14.09,1.15,7.32-4.2,7.44-7.06.39-11.44-10.79-6.71-21.06-14-29.23-23.94-2.45-3-4.11-5.55-2.58-9.77C178.07,87,177.89,83.14,178.12,81.21Zm6.74,55.85c-4.78,3.13-9.36,8.49-13.87,8.42s-9.64-4.91-13.49-8.68c-7.37-7.2-14.06-7.07-21.88-.78-4.35,3.5-9.75,8.08-14.57,8-5-.13-10.47-4.72-14.82-8.42-7.4-6.3-13.81-6.34-21,.2-3.64,3.3-8.34,7.59-12.52,7.54s-8.15-5-12.22-7.85c-.13-.1-.26-.28-.4-.29-1.88-.12-3.87-.63-5.62-.2s-3.06,2-4.73,2.71c-3.79,1.56-4.35,4.24-3.88,8a67.78,67.78,0,0,0,18.74,39.44c25.17,26.37,68.23,31.91,99.25,12.71,14.41-8.91,24.46-21.41,29.54-37.68C197.65,146.4,197.21,145.35,184.86,137.06Z"/><path class="cls-1" d="M178.12,81.21c-.23,1.93-.05,5.78-1.26,9.13-1.53,4.22.13,6.79,2.58,9.77,8.17,9.93,18.44,17.23,29.23,23.94,7.05,4.38,6.93,7.24-.39,11.44-6.69,3.84-8.06,3.73-14.09-1.15-9-7.28-9.17-7.49-18.49-.21-3.6,2.82-6,2.68-9.4,0-4.81-3.84-10.21-6.92-15.05-10.72-3-2.36-5.28-2.19-8.36-.18-6.14,4-12.63,7.43-18.83,11.32-2.33,1.47-4,1.38-6.28-.14-6.07-4.1-12.43-7.78-18.43-12-2.82-2-4.82-1.75-7.51.16-5.28,3.77-10.9,7.06-16.24,10.76-2.11,1.46-3.81,1.77-5.64-.16a3.69,3.69,0,0,0-.4-.29c-4-2.7-7.83-7.4-11.86-7.53s-8.53,4-12.46,6.73c-5.3,3.73-10.56,5.47-16.66,2.13-3.8-2.09-4.36-4.46-1.28-7.43a30.09,30.09,0,0,1,6.08-4.33,138.63,138.63,0,0,0,37.54-31,13.73,13.73,0,0,0,3-7.42c.76-10.24,2.51-20.16,7.35-29.34,13.61-25.83,49.9-33.53,75.59-15.89C171.07,48.51,178.1,62.2,178.12,81.21Zm-39.33,6c-2.27-3.74-4.39-7.26-6.53-10.77-1.46-2.39-3.42-3-5.89-1.55l-11.68,6.73c2.38,3.87,4.56,7.36,6.67,10.9,1.45,2.43,3.24,3.06,5.76,1.53C130.91,91.8,134.75,89.61,138.79,87.25ZM110.05,62.86c-.1-4.52-3-8-6.52-7.9s-6.18,3.94-6.08,8.37,3,8,6.55,7.85S110.14,67.38,110.05,62.86Zm52.22,9.23c-.32-3.18-1.4-6.49-5.77-6.87-3.59-.3-7.07,4.25-6.89,8.88.15,3.75,1.37,7,5.76,7.4C159,81.79,162.32,77.32,162.27,72.09Z"/><path class="cls-1" d="M184.86,137.06c12.35,8.29,12.79,9.34,8.51,23.09-5.08,16.27-15.13,28.77-29.54,37.68-31,19.2-74.08,13.66-99.25-12.71a67.78,67.78,0,0,1-18.74-39.44c-.47-3.77.09-6.45,3.88-8,1.67-.68,3-2.3,4.73-2.71s3.74.08,5.62.2c.14,0,.27.19.4.29,4.07,2.82,8.12,7.8,12.22,7.85s8.88-4.24,12.52-7.54c7.21-6.54,13.62-6.5,21-.2,4.35,3.7,9.78,8.29,14.82,8.42,4.82.12,10.22-4.46,14.57-8,7.82-6.29,14.51-6.42,21.88.78,3.85,3.77,8.91,8.62,13.49,8.68S180.08,140.19,184.86,137.06Zm-74.79,53.41L114,187c-1.25-1.26-2.27-3-3.77-3.7-5.34-2.55-11.61-3.8-16.08-7.36-5.44-4.33-9.33-10.58-14.09-15.81-1.24-1.37-3.23-2-4.87-3-.49,1.88-1.73,4-1.29,5.58a24.36,24.36,0,0,0,4,7.89,51.89,51.89,0,0,0,21.92,16.75C102.82,188.54,106.09,189.25,110.07,190.47Z"/><path d="M138.79,87.25c-4,2.36-7.88,4.55-11.67,6.84-2.52,1.53-4.31.9-5.76-1.53-2.11-3.54-4.29-7-6.67-10.9l11.68-6.73c2.47-1.42,4.43-.84,5.89,1.55C134.4,80,136.52,83.51,138.79,87.25Z"/><path d="M110.05,62.86c.09,4.52-2.55,8.17-6,8.32s-6.44-3.33-6.55-7.85,2.65-8.21,6.08-8.37S110,58.34,110.05,62.86Z"/><path d="M162.27,72.09c0,5.23-3.27,9.7-6.9,9.41-4.39-.36-5.61-3.65-5.76-7.4-.18-4.63,3.3-9.18,6.89-8.88C160.87,65.6,162,68.91,162.27,72.09Z"/><path d="M110.07,190.47c-4-1.22-7.25-1.93-10.28-3.2a51.89,51.89,0,0,1-21.92-16.75,24.36,24.36,0,0,1-4-7.89c-.44-1.62.8-3.7,1.29-5.58,1.64,1,3.63,1.68,4.87,3,4.76,5.23,8.65,11.48,14.09,15.81,4.47,3.56,10.74,4.81,16.08,7.36,1.5.72,2.52,2.44,3.77,3.7Z"/></g></g></svg>