<?xml version="1.0" standalone="no"?>
<!DOCTYPE svg PUBLIC "-//W3C//DTD SVG 20010904//EN"
 "http://www.w3.org/TR/2001/REC-SVG-20010904/DTD/svg10.dtd">
<svg version="1.0" xmlns="http://www.w3.org/2000/svg"
 width="240.000000pt" height="240.000000pt" viewBox="0 0 240.000000 240.000000"
 preserveAspectRatio="xMidYMid meet">
<metadata>
Created by potrace 1.14, written by Peter Selinger 2001-2017
</metadata>
<g transform="translate(0.000000,240.000000) scale(0.100000,-0.100000)"
fill="#000000" stroke="none">
<path d="M1145 2169 c-22 -4 -51 -11 -65 -13 -14 -3 -59 -22 -100 -42 -181
-89 -306 -298 -309 -519 -1 -48 -4 -54 -64 -115 -85 -88 -142 -134 -277 -223
-119 -78 -156 -118 -152 -167 3 -39 23 -70 57 -87 38 -20 126 -44 137 -37 4 3
8 2 9 -3 0 -4 2 -19 5 -33 2 -14 6 -37 8 -52 12 -80 65 -203 128 -295 49 -72
169 -184 236 -221 92 -50 232 -109 232 -97 0 3 11 0 24 -5 100 -38 349 -30
485 16 227 77 401 232 484 434 28 68 56 183 51 214 -2 12 11 23 44 37 96 42
144 99 136 162 -5 40 -12 48 -138 133 -61 42 -139 103 -173 137 l-63 61 7 51
c21 149 -6 298 -74 404 -74 115 -205 210 -339 246 -69 19 -232 27 -289 14z
m212 -73 c105 -17 197 -63 276 -139 65 -63 104 -128 128 -212 19 -68 23 -196
7 -251 -13 -48 -6 -63 65 -135 76 -79 92 -91 207 -169 50 -35 94 -69 97 -77
11 -28 -78 -93 -128 -93 -12 0 -51 24 -86 53 -36 28 -70 51 -76 49 -5 -2 -38
-23 -73 -48 l-64 -46 -116 81 c-63 45 -118 81 -121 81 -4 0 -64 -34 -135 -76
l-128 -75 -93 57 c-50 32 -94 61 -97 64 -3 3 -18 12 -35 22 l-30 16 -90 -58
c-49 -32 -94 -62 -100 -67 -29 -26 -46 -21 -113 32 l-68 53 -103 -60 c-96 -56
-105 -60 -148 -53 -24 3 -53 15 -64 26 -30 30 -8 60 84 115 108 65 208 145
307 245 73 75 80 86 81 123 2 120 36 243 91 330 74 118 196 196 332 212 28 4
52 7 54 9 4 3 95 -3 139 -9z m-357 -1015 c3 -3 14 -11 25 -17 11 -6 56 -35
101 -63 l81 -52 128 76 c70 41 130 75 134 75 3 0 60 -38 125 -84 l119 -83 68
49 68 50 56 -44 c51 -40 55 -45 51 -78 -37 -296 -264 -525 -581 -588 -44 -9
-263 -8 -312 1 -71 13 -195 61 -258 100 -187 115 -304 282 -340 487 -15 86
-15 87 58 129 l50 29 74 -55 c40 -30 78 -53 85 -50 7 3 60 37 118 75 88 59
108 68 125 59 11 -5 22 -13 25 -16z"/>
<path d="M995 1830 c-30 -33 -25 -110 9 -132 23 -16 65 -8 80 14 52 74 -30
183 -89 118z"/>
<path d="M1526 1731 c-41 -45 -37 -118 7 -139 24 -12 32 -11 52 2 46 30 49
123 5 146 -27 15 -45 12 -64 -9z"/>
<path d="M1218 1626 c-32 -18 -60 -35 -64 -38 -10 -10 70 -138 86 -138 8 0 45
17 82 38 l68 38 -30 47 c-17 26 -30 52 -30 57 0 10 -32 30 -47 30 -4 0 -34
-15 -65 -34z"/>
<path d="M736 814 c-39 -101 267 -346 384 -309 24 8 26 37 5 55 -8 7 -15 10
-15 7 0 -8 -75 18 -126 44 -63 32 -150 121 -182 187 -17 35 -55 44 -66 16z"/>
</g>
</svg>
