<svg xmlns="http://www.w3.org/2000/svg" viewBox="0 0 200.37 242"><defs><style>.cls-1{stroke:#231f20;stroke-miterlimit:10;stroke-width:2px;}</style></defs><g id="Layer_2" data-name="Layer 2"><g id="Layer_1-2" data-name="Layer 1"><path class="cls-1" d="M199.31,140.81a103.64,103.64,0,0,1-7.16,41c-14.33,36.66-48.56,58.92-91,59.2-42.87.27-77.51-21.59-92.28-58.35-9.46-23.52-9.43-47.67-5.07-72,5.19-28.92,16-55.93,37-78.39A125.82,125.82,0,0,1,71.15,8.66c19-10.55,39.21-9.83,58.8-.13,17.4,8.61,30.08,21.69,40.49,36.74C189,72.12,199.17,105.4,199.31,140.81Zm-11.28.4c-.17-33.77-10-65.69-27.5-90.94-8.71-12.56-19.19-23.65-33.35-31.35C109.21,9.14,91,9,73.31,19.16A91.65,91.65,0,0,0,54.76,33.1c-22.5,22.15-34,49.15-39.58,78.46C10.75,135,10.62,158.38,20.31,181,33.65,212.14,63,230.38,99.8,230.62s66.3-17.68,80.14-48.69A94.55,94.55,0,0,0,188,141.21Z"/><path class="cls-1" d="M45.44,100.84c5.8-13.08,10.38-26,17.11-37.75,5.2-9,13-16.65,19.86-24.65,2.36-2.73,5.74-5.7,9.36-2s.74,6.6-2.13,9.26a108.7,108.7,0,0,0-32.35,55.78c-.77,3.25-2.19,6.3-6,5.11C49.29,106,47.93,103.42,45.44,100.84Z"/><path class="cls-1" d="M158,110.59c4.76.59,7.5,3,7.33,7.55s-3,7.17-7.48,7c-4.21-.16-6.69-2.91-6.75-7.11C151.06,113.41,154,111.22,158,110.59Z"/><path class="cls-1" d="M79.41,198.6c4.83.53,7.41,3,7.27,7.61-.14,4.31-2.6,6.88-6.93,6.91-4.58,0-7.3-2.53-7.35-7.16S75.25,199.11,79.41,198.6Z"/><path class="cls-1" d="M105.53,206.74c-1.82-2.45-4.77-4.74-5.18-7.4-.61-4.09,2.33-6.82,6.71-6.71,4.06.11,6.86,2.71,6.18,6.57-.47,2.71-3.19,5-4.91,7.52Z"/><path class="cls-1" d="M124.6,176.59c-2.49,1.75-4.83,4.62-7.51,5-3.8.53-6.43-2.43-6.43-6.44s2.67-7,6.46-6.39c2.69.4,5,3.26,7.49,5C124.61,174.71,124.6,175.65,124.6,176.59Z"/><path class="cls-1" d="M56.6,175.74c1.72,2.31,5,4.77,4.76,6.9-.22,2.33-3.53,5.93-5.66,6.06s-5.63-3.33-6-5.62,2.63-4.82,4.15-7.26Z"/><path class="cls-1" d="M157,80.15c-3.56,2.6-5.87,5.53-7.59,5.22-2.19-.41-3.91-3.43-5.83-5.32,1.86-1.76,3.61-4.75,5.61-4.93S153.38,77.65,157,80.15Z"/><path class="cls-1" d="M161.88,179.23c-3.38,2.41-5.43,5-7.2,4.82s-4.62-3-4.68-4.78,2.83-4.53,4.64-4.71S158.48,176.89,161.88,179.23Z"/></g></g></svg>