<svg xmlns="http://www.w3.org/2000/svg" viewBox="0 0 200.37 242"><defs><style>.cls-1{stroke:#231f20;stroke-miterlimit:10;stroke-width:2px;}</style></defs><g id="Layer_2" data-name="Layer 2"><g id="Layer_1-2" data-name="Layer 1"><path class="cls-1" d="M103.09,241c-37.26-.51-68.32-27.71-78.8-69.42-.14-.59-.35-1.16-.45-1.76-.95-5.82-.57-13-3.21-17.06-2.37-3.63-8.18-3.4-12.25-5.54-8.33-4.38-9.87-14.8-3.27-22.71a59.46,59.46,0,0,1,9.86-8.9A139.08,139.08,0,0,0,46.3,82.78c1.43-2.11,2.12-5.28,2.59-8.1,1.57-9.4,1.93-19.3,4.47-28.22C63.56,10.6,93-6.7,123.76,4.27c28.78,10.25,45,43.72,39.56,81.25-.34,2.36.33,6,1.64,7.49,6.88,7.76,14.07,15.07,21.25,22.38,2.13,2.17,4.63,3.77,6.88,5.77,8.17,7.28,8.37,16.68.57,24.62-1,1-2,2.36-3.22,2.7-7.24,2.13-8.8,8.34-10,17-5.19,37.28-30,66.57-60.94,73.21C114.08,239.89,108.56,240.26,103.09,241Zm54-167c0-23.42-6.85-40.28-20.68-52.31-25-21.74-60.3-12.26-73.54,19.58-4.71,11.3-6.41,23.52-7.14,36.13a19.66,19.66,0,0,1-2.92,9.14C42.4,102,30.26,114.78,16.28,124.77a30,30,0,0,0-5.91,5.34c-3,3.66-2.46,6.57,1.24,9.14,5.93,4.12,11.05,2,16.2-2.61,3.82-3.4,8.14-8.45,12.12-8.3s7.7,6,11.54,9.28a2.19,2.19,0,0,1,.39.36c1.78,2.38,3.44,2,5.49.19,5.19-4.55,10.65-8.61,15.79-13.25,2.62-2.36,4.56-2.63,7.31-.2,5.84,5.16,12,9.69,17.92,14.75,2.19,1.87,3.85,2,6.11.17,6-4.8,12.35-9,18.32-13.95,3-2.47,5.21-2.68,8.14.23,4.71,4.67,10,8.48,14.63,13.21,3.32,3.36,5.65,3.52,9.15.06,9.06-9,9.22-8.72,18,.25,5.87,6,7.2,6.15,13.71,1.42,7.12-5.18,7.24-8.7.38-14.09-10.5-8.27-20.48-17.27-28.44-29.5-2.38-3.67-4-6.83-2.51-12C157,81.11,156.85,76.36,157.07,74Zm6.55,68.82c-4.64,3.85-9.1,10.45-13.48,10.37s-9.38-6-13.13-10.7c-7.17-8.86-13.67-8.71-21.28-1-4.23,4.32-9.48,10-14.17,9.8-4.91-.16-10.18-5.8-14.42-10.37-7.2-7.76-13.43-7.81-20.45.25-3.54,4.07-8.11,9.36-12.17,9.29s-7.93-6.2-11.89-9.67c-.13-.12-.25-.34-.39-.35-1.83-.16-3.76-.79-5.47-.26s-3,2.5-4.6,3.35c-3.69,1.91-4.23,5.22-3.77,9.86,1.83,18.81,8,35,18.23,48.59,24.48,32.49,66.37,39.31,96.54,15.67,14-11,23.8-26.39,28.73-46.43C176.07,154.3,175.64,153,163.62,142.8Z"/><path class="cls-1" d="M118.81,81.67c-3.92,2.89-7.66,5.57-11.34,8.37-2.46,1.88-4.2,1.11-5.61-1.87-2-4.33-4.18-8.6-6.49-13.35l11.36-8.24c2.41-1.74,4.31-1,5.73,1.9C114.54,72.77,116.6,77.08,118.81,81.67Z"/><path class="cls-1" d="M90.85,51.8C91,57.34,88.37,61.8,85,62s-6.26-4.08-6.37-9.62,2.58-10,5.92-10.23S90.76,46.27,90.85,51.8Z"/><path class="cls-1" d="M141.65,63.1c0,6.41-3.18,11.88-6.71,11.52-4.27-.43-5.46-4.47-5.6-9.05-.18-5.68,3.21-11.25,6.7-10.87C140.3,55.15,141.34,59.21,141.65,63.1Z"/><path class="cls-1" d="M90.88,208.06c-3.87-1.49-7-2.36-10-3.92a53.58,53.58,0,0,1-21.32-20.51A32.84,32.84,0,0,1,55.65,174c-.43-2,.78-4.54,1.25-6.83,1.6,1.22,3.53,2.06,4.74,3.73,4.63,6.41,8.41,14.06,13.7,19.36,4.35,4.36,10.45,5.89,15.64,9,1.46.88,2.46,3,3.67,4.53Z"/></g></g></svg>